<svg width="28" height="28" viewBox="0 0 28 28" fill="none" xmlns="http://www.w3.org/2000/svg">
<path d="M23.4752 0H4.5248C3.32475 0 2.17385 0.476719 1.32528 1.32528C0.476719 2.17385 0 3.32475 0 4.5248L0 23.4752C0 24.6753 0.476719 25.8262 1.32528 26.6747C2.17385 27.5233 3.32475 28 4.5248 28H23.4752C24.6753 28 25.8262 27.5233 26.6747 26.6747C27.5233 25.8262 28 24.6753 28 23.4752V4.5248C28 3.32475 27.5233 2.17385 26.6747 1.32528C25.8262 0.476719 24.6753 0 23.4752 0V0ZM25.2 23.4752C25.2 23.9326 25.0183 24.3714 24.6948 24.6948C24.3714 25.0183 23.9326 25.2 23.4752 25.2H4.5248C4.06735 25.2 3.62864 25.0183 3.30518 24.6948C2.98172 24.3714 2.8 23.9326 2.8 23.4752V4.5248C2.8 4.06735 2.98172 3.62864 3.30518 3.30518C3.62864 2.98172 4.06735 2.8 4.5248 2.8H23.4752C23.9326 2.8 24.3714 2.98172 24.6948 3.30518C25.0183 3.62864 25.2 4.06735 25.2 4.5248V23.4752Z" fill="white"/>
<path d="M21 6.71997H6.99998C6.62867 6.71997 6.27258 6.86747 6.01003 7.13002C5.74748 7.39257 5.59998 7.74867 5.59998 8.11997C5.59998 8.49127 5.74748 8.84737 6.01003 9.10992C6.27258 9.37247 6.62867 9.51997 6.99998 9.51997H21C21.3713 9.51997 21.7274 9.37247 21.9899 9.10992C22.2525 8.84737 22.4 8.49127 22.4 8.11997C22.4 7.74867 22.2525 7.39257 21.9899 7.13002C21.7274 6.86747 21.3713 6.71997 21 6.71997ZM21 12.88H6.99998C6.62867 12.88 6.27258 13.0275 6.01003 13.29C5.74748 13.5526 5.59998 13.9087 5.59998 14.28C5.59998 14.6513 5.74748 15.0074 6.01003 15.2699C6.27258 15.5325 6.62867 15.68 6.99998 15.68H21C21.3713 15.68 21.7274 15.5325 21.9899 15.2699C22.2525 15.0074 22.4 14.6513 22.4 14.28C22.4 13.9087 22.2525 13.5526 21.9899 13.29C21.7274 13.0275 21.3713 12.88 21 12.88Z" fill="white"/>
<path d="M18.76 19.04H6.99998C6.22678 19.04 5.59998 19.6668 5.59998 20.44C5.59998 21.2132 6.22678 21.84 6.99998 21.84H18.76C19.5332 21.84 20.16 21.2132 20.16 20.44C20.16 19.6668 19.5332 19.04 18.76 19.04Z" fill="#00FF88"/>
</svg>
