<svg width="29" height="28" viewBox="0 0 29 28" fill="none" xmlns="http://www.w3.org/2000/svg">
<g clip-path="url(#clip0)">
<path d="M23.7581 0H4.90851C3.69509 0 2.53137 0.482029 1.67336 1.34005C0.815342 2.19806 0.333313 3.36178 0.333313 4.5752L0.333313 16.7048C0.333313 17.3056 0.451654 17.9006 0.681579 18.4557C0.911505 19.0107 1.24851 19.5151 1.67336 19.94C2.53137 20.798 3.69509 21.28 4.90851 21.28H6.33651L4.44371 25.76C4.35097 25.9371 4.29724 26.132 4.28613 26.3317C4.27502 26.5313 4.3068 26.731 4.37932 26.9173C4.45184 27.1036 4.56343 27.2722 4.70657 27.4118C4.84971 27.5514 5.02108 27.6587 5.20916 27.7265C5.39724 27.7943 5.59766 27.821 5.79693 27.8049C5.99621 27.7887 6.18972 27.7301 6.36444 27.6329C6.53917 27.5358 6.69105 27.4023 6.80987 27.2415C6.9287 27.0807 7.0117 26.8964 7.05331 26.7008L9.71891 20.4456C9.7182 20.4325 9.7182 20.4195 9.71891 20.4064V20.3672L9.74691 20.272C9.74691 20.2272 9.77491 20.1768 9.78611 20.1264C9.78889 20.076 9.78889 20.0256 9.78611 19.9752C9.78881 19.9435 9.78881 19.9117 9.78611 19.88C9.78909 19.8278 9.78909 19.7754 9.78611 19.7232V19.6C9.77369 19.5562 9.75874 19.5132 9.74131 19.4712C9.73228 19.4264 9.71721 19.3831 9.69651 19.3424C9.67936 19.3033 9.65874 19.2658 9.63491 19.2304C9.61588 19.1876 9.5934 19.1464 9.56771 19.1072L9.47811 19.0008C9.45313 18.9665 9.42501 18.9347 9.39411 18.9056C9.36116 18.8746 9.32555 18.8465 9.28771 18.8216C9.25619 18.7889 9.2204 18.7607 9.18131 18.7376L9.07491 18.676C9.028 18.6502 8.97935 18.6278 8.92931 18.6088H8.83411L8.69971 18.48H4.90851C4.67539 18.48 4.44455 18.4341 4.22917 18.3449C4.0138 18.2557 3.8181 18.1249 3.65326 17.9601C3.48841 17.7952 3.35765 17.5995 3.26844 17.3841C3.17923 17.1688 3.13331 16.9379 3.13331 16.7048V4.5752C3.13331 4.10439 3.32034 3.65286 3.65326 3.31994C3.98617 2.98703 4.4377 2.8 4.90851 2.8H23.7581C24.2289 2.8 24.6805 2.98703 25.0134 3.31994C25.3463 3.65286 25.5333 4.10439 25.5333 4.5752V16.7048C25.5333 17.1756 25.3463 17.6271 25.0134 17.9601C24.6805 18.293 24.2289 18.48 23.7581 18.48H14.0533C13.682 18.48 13.3259 18.6275 13.0634 18.89C12.8008 19.1526 12.6533 19.5087 12.6533 19.88C12.6533 20.2513 12.8008 20.6074 13.0634 20.87C13.3259 21.1325 13.682 21.28 14.0533 21.28H23.7581C24.3589 21.28 24.9539 21.1617 25.509 20.9317C26.0641 20.7018 26.5684 20.3648 26.9933 19.94C27.4181 19.5151 27.7551 19.0107 27.985 18.4557C28.215 17.9006 28.3333 17.3056 28.3333 16.7048V4.5752C28.3333 3.36178 27.8513 2.19806 26.9933 1.34005C26.1353 0.482029 24.9715 0 23.7581 0Z" fill="white"/>
<path d="M18.8133 8.11997C18.8133 7.74867 18.6658 7.39257 18.4032 7.13002C18.1407 6.86747 17.7846 6.71997 17.4133 6.71997H7.33329C6.96199 6.71997 6.60589 6.86747 6.34334 7.13002C6.08079 7.39257 5.93329 7.74867 5.93329 8.11997C5.93329 8.49127 6.08079 8.84737 6.34334 9.10992C6.60589 9.37247 6.96199 9.51997 7.33329 9.51997H17.4133C17.7846 9.51997 18.1407 9.37247 18.4032 9.10992C18.6658 8.84737 18.8133 8.49127 18.8133 8.11997Z" fill="white"/>
<path d="M14.6133 11.76H7.33329C6.56009 11.76 5.93329 12.3868 5.93329 13.16C5.93329 13.9332 6.56009 14.56 7.33329 14.56H14.6133C15.3865 14.56 16.0133 13.9332 16.0133 13.16C16.0133 12.3868 15.3865 11.76 14.6133 11.76Z" fill="#00FF88"/>
</g>
<defs>
<clipPath id="clip0">
<rect width="28" height="27.6192" fill="white" transform="translate(0.333313)"/>
</clipPath>
</defs>
</svg>
