<svg width="29" height="24" viewBox="0 0 29 24" fill="none" xmlns="http://www.w3.org/2000/svg">
<g clip-path="url(#clip0)">
<path d="M23.3467 6.72004H27.2667C27.638 6.72004 27.9941 6.57254 28.2566 6.30999C28.5192 6.04744 28.6667 5.69135 28.6667 5.32004C28.6667 4.94874 28.5192 4.59265 28.2566 4.33009C27.9941 4.06754 27.638 3.92004 27.2667 3.92004H23.3467C22.9754 3.92004 22.6193 4.06754 22.3567 4.33009C22.0942 4.59265 21.9467 4.94874 21.9467 5.32004C21.9467 5.69135 22.0942 6.04744 22.3567 6.30999C22.6193 6.57254 22.9754 6.72004 23.3467 6.72004ZM9.34669 3.92004H2.06669C1.69538 3.92004 1.33929 4.06754 1.07674 4.33009C0.814187 4.59265 0.666687 4.94874 0.666687 5.32004C0.666687 5.69135 0.814187 6.04744 1.07674 6.30999C1.33929 6.57254 1.69538 6.72004 2.06669 6.72004H9.34669C9.71799 6.72004 10.0741 6.57254 10.3366 6.30999C10.5992 6.04744 10.7467 5.69135 10.7467 5.32004C10.7467 4.94874 10.5992 4.59265 10.3366 4.33009C10.0741 4.06754 9.71799 3.92004 9.34669 3.92004ZM5.98669 16.8H2.06669C1.69538 16.8 1.33929 16.9475 1.07674 17.2101C0.814187 17.4726 0.666687 17.8287 0.666687 18.2C0.666687 18.5713 0.814187 18.9274 1.07674 19.19C1.33929 19.4525 1.69538 19.6 2.06669 19.6H5.98669C6.35799 19.6 6.71409 19.4525 6.97664 19.19C7.23919 18.9274 7.38669 18.5713 7.38669 18.2C7.38669 17.8287 7.23919 17.4726 6.97664 17.2101C6.71409 16.9475 6.35799 16.8 5.98669 16.8ZM27.2667 16.8H19.9867C19.6154 16.8 19.2593 16.9475 18.9967 17.2101C18.7342 17.4726 18.5867 17.8287 18.5867 18.2C18.5867 18.5713 18.7342 18.9274 18.9967 19.19C19.2593 19.4525 19.6154 19.6 19.9867 19.6H27.2667C27.638 19.6 27.9941 19.4525 28.2566 19.19C28.5192 18.9274 28.6667 18.5713 28.6667 18.2C28.6667 17.8287 28.5192 17.4726 28.2566 17.2101C27.9941 16.9475 27.638 16.8 27.2667 16.8Z" fill="white"/>
<path d="M11.0267 12.88C9.97447 12.88 8.9459 13.192 8.07103 13.7766C7.19616 14.3612 6.51429 15.192 6.11163 16.1641C5.70897 17.1362 5.60362 18.2059 5.80889 19.2379C6.01416 20.2699 6.52084 21.2178 7.26486 21.9618C8.00887 22.7058 8.95681 23.2125 9.98879 23.4178C11.0208 23.6231 12.0904 23.5177 13.0625 23.115C14.0346 22.7124 14.8655 22.0305 15.4501 21.1556C16.0347 20.2808 16.3467 19.2522 16.3467 18.2C16.3467 16.789 15.7862 15.4359 14.7885 14.4382C13.7908 13.4405 12.4376 12.88 11.0267 12.88ZM11.0267 20.72C10.5283 20.72 10.041 20.5722 9.62663 20.2953C9.21222 20.0184 8.88922 19.6248 8.69849 19.1644C8.50776 18.7039 8.45785 18.1972 8.55509 17.7084C8.65232 17.2195 8.89233 16.7705 9.24476 16.4181C9.59719 16.0657 10.0462 15.8257 10.535 15.7284C11.0239 15.6312 11.5306 15.6811 11.991 15.8718C12.4515 16.0626 12.8451 16.3856 13.122 16.8C13.3989 17.2144 13.5467 17.7016 13.5467 18.2C13.5452 18.8679 13.2792 19.508 12.8069 19.9803C12.3347 20.4525 11.6946 20.7185 11.0267 20.72ZM18.3067 0C17.2545 0 16.2259 0.312013 15.351 0.896582C14.4762 1.48115 13.7943 2.31202 13.3916 3.28412C12.989 4.25623 12.8836 5.3259 13.0889 6.35788C13.2942 7.38986 13.8008 8.33779 14.5449 9.08181C15.2889 9.82582 16.2368 10.3325 17.2688 10.5378C18.3008 10.7431 19.3704 10.6377 20.3425 10.235C21.3146 9.83238 22.1455 9.1505 22.7301 8.27563C23.3147 7.40076 23.6267 6.3722 23.6267 5.32C23.6267 4.62137 23.4891 3.92958 23.2217 3.28412C22.9544 2.63867 22.5625 2.0522 22.0685 1.55819C21.5745 1.06418 20.988 0.672316 20.3425 0.404961C19.6971 0.137606 19.0053 0 18.3067 0V0ZM18.3067 7.84C17.8083 7.84 17.321 7.6922 16.9066 7.4153C16.4922 7.1384 16.1692 6.74483 15.9785 6.28436C15.7878 5.82389 15.7379 5.3172 15.8351 4.82837C15.9323 4.33954 16.1723 3.89052 16.5248 3.53809C16.8772 3.18566 17.3262 2.94566 17.815 2.84842C18.3039 2.75119 18.8106 2.80109 19.271 2.99182C19.7315 3.18256 20.1251 3.50555 20.402 3.91996C20.6789 4.33437 20.8267 4.82159 20.8267 5.32C20.8252 5.98789 20.5592 6.628 20.0869 7.10028C19.6147 7.57255 18.9746 7.83852 18.3067 7.84Z" fill="#00FF88"/>
</g>
<defs>
<clipPath id="clip0">
<rect width="28" height="23.52" fill="white" transform="translate(0.666687)"/>
</clipPath>
</defs>
</svg>
